<?xml version="1.0" standalone="no"?>
<!DOCTYPE svg PUBLIC "-//W3C//DTD SVG 20010904//EN"
 "http://www.w3.org/TR/2001/REC-SVG-20010904/DTD/svg10.dtd">
<svg version="1.0" xmlns="http://www.w3.org/2000/svg"
 width="24.000000pt" height="24.000000pt" viewBox="0 0 24.000000 24.000000"
 preserveAspectRatio="xMidYMid meet">

<g transform="translate(0.000000,24.000000) scale(0.100000,-0.100000)"
fill="#000000" stroke="none">
<path d="M82 228 c-15 -15 -16 -58 -2 -58 6 0 10 11 10 25 0 24 2 25 65 25
l65 0 0 -100 0 -100 -65 0 c-63 0 -65 1 -65 25 0 14 -4 25 -10 25 -14 0 -13
-43 2 -58 16 -16 130 -16 146 0 16 16 16 200 0 216 -16 16 -130 16 -146 0z"/>
<path d="M110 145 c11 -13 5 -15 -49 -15 -34 0 -61 -4 -61 -10 0 -6 27 -10 61
-10 54 0 60 -2 49 -15 -19 -23 4 -18 25 5 17 19 17 21 0 40 -21 23 -44 28 -25
5z"/>
</g>
</svg>
