<?xml version="1.0" standalone="no"?>
<!DOCTYPE svg PUBLIC "-//W3C//DTD SVG 20010904//EN"
 "http://www.w3.org/TR/2001/REC-SVG-20010904/DTD/svg10.dtd">
<svg version="1.0" xmlns="http://www.w3.org/2000/svg"
 width="24.000000pt" height="24.000000pt" viewBox="0 0 24.000000 24.000000"
 preserveAspectRatio="xMidYMid meet">

<g transform="translate(0.000000,24.000000) scale(0.100000,-0.100000)"
fill="#000000" stroke="none">
<path d="M82 224 c-23 -16 -29 -53 -12 -83 7 -14 4 -21 -14 -31 -30 -15 -61
-72 -53 -94 5 -13 21 -16 77 -16 40 0 70 4 70 10 0 6 -28 10 -65 10 -76 0 -83
13 -35 62 28 27 36 30 76 25 24 -2 47 -1 50 4 3 5 0 9 -6 9 -7 0 -8 6 0 19 24
46 -3 101 -50 101 -9 0 -26 -7 -38 -16z m68 -18 c28 -35 -11 -93 -47 -70 -36
22 -23 84 17 84 10 0 23 -7 30 -14z"/>
<path d="M191 77 c-1 -10 -11 -21 -23 -26 l-23 -8 22 -7 c12 -4 23 -13 25 -21
2 -10 9 -8 27 10 16 18 19 25 9 25 -8 0 -20 10 -26 23 -9 18 -11 19 -11 4z"/>
</g>
</svg>
